# xmcd CD database file
#
# Track frame offsets:
#	150
#	17840
#	38320
#	58512
#	76920
#	93330
#	113260
#	128725
#	143077
#	171885
#	187670
#	202185
#
# Disc length: 3153 seconds
#
# Revision: 0
# Processed by: cddbd v1.4PL0 Copyright (c) Steve Scherf et al.
# Submitted via: Feurio! 1.65 - http://www.feurio.com
#
DISCID=8a0c4f0c
DTITLE=Doug MacLeod Band - Woman In The Street
DYEAR=1988
DGENRE=Blues
TTITLE0=Skin Game
TTITLE1=Working Man Blues
TTITLE2=The Highway They Called The Blues
TTITLE3=I Might Bend (But I Won't Break)
TTITLE4=I Think You're Foolin' Me
TTITLE5=King Freddie
TTITLE6=Still Some Smoke
TTITLE7=Splain' It To Me
TTITLE8=Send The Soul On Home
TTITLE9=Woman In The Street
TTITLE10=One Good Woman
TTITLE11=Church Street Serenade
EXTD=ARD Line Records STCD 9.00444
EXTT0=
EXTT1=
EXTT2=
EXTT3=
EXTT4=
EXTT5=
EXTT6=
EXTT7=
EXTT8=
EXTT9=
EXTT10=
EXTT11=
PLAYORDER=
